<mxfile host="app.diagrams.net" agent="Mozilla/5.0 (Macintosh; Intel Mac OS X 10_15_7) AppleWebKit/537.36 (KHTML, like Gecko) Chrome/128.0.0.0 Safari/537.36" version="24.7.17">
  <diagram name="第 1 页" id="eamMsdwtu4UeMZCZsxqP">
    <mxGraphModel dx="723" dy="733" grid="1" gridSize="10" guides="1" tooltips="1" connect="1" arrows="1" fold="1" page="1" pageScale="1" pageWidth="827" pageHeight="1169" math="0" shadow="0">
      <root>
        <mxCell id="0" />
        <mxCell id="1" parent="0" />
        <mxCell id="WkEsFBFeogpZg_ynUTP_-15" value="" style="rounded=0;whiteSpace=wrap;html=1;" vertex="1" parent="1">
          <mxGeometry x="140" y="130" width="390" height="85" as="geometry" />
        </mxCell>
        <mxCell id="WkEsFBFeogpZg_ynUTP_-13" value="" style="rounded=0;whiteSpace=wrap;html=1;" vertex="1" parent="1">
          <mxGeometry x="140" y="230" width="390" height="490" as="geometry" />
        </mxCell>
        <mxCell id="LnjIlbvOi23F2FC-CPrr-1" value="" style="rounded=0;whiteSpace=wrap;html=1;" parent="1" vertex="1">
          <mxGeometry x="220" y="485" width="300" height="100" as="geometry" />
        </mxCell>
        <mxCell id="LnjIlbvOi23F2FC-CPrr-2" value="" style="rounded=0;whiteSpace=wrap;html=1;" parent="1" vertex="1">
          <mxGeometry x="220" y="360" width="300" height="110" as="geometry" />
        </mxCell>
        <mxCell id="LnjIlbvOi23F2FC-CPrr-3" value="coral搜索" style="rounded=0;whiteSpace=wrap;html=1;" parent="1" vertex="1">
          <mxGeometry x="220" y="160" width="90" height="40" as="geometry" />
        </mxCell>
        <mxCell id="LnjIlbvOi23F2FC-CPrr-6" value="coral问答" style="rounded=0;whiteSpace=wrap;html=1;" parent="1" vertex="1">
          <mxGeometry x="324" y="160" width="90" height="40" as="geometry" />
        </mxCell>
        <mxCell id="LnjIlbvOi23F2FC-CPrr-7" value="外部系统" style="rounded=0;whiteSpace=wrap;html=1;" parent="1" vertex="1">
          <mxGeometry x="430" y="160" width="90" height="40" as="geometry" />
        </mxCell>
        <mxCell id="LnjIlbvOi23F2FC-CPrr-8" value="召回" style="text;html=1;align=center;verticalAlign=middle;whiteSpace=wrap;rounded=0;" parent="1" vertex="1">
          <mxGeometry x="340" y="485" width="60" height="30" as="geometry" />
        </mxCell>
        <mxCell id="LnjIlbvOi23F2FC-CPrr-9" value="排序" style="text;html=1;align=center;verticalAlign=middle;whiteSpace=wrap;rounded=0;" parent="1" vertex="1">
          <mxGeometry x="339" y="360" width="60" height="30" as="geometry" />
        </mxCell>
        <mxCell id="LnjIlbvOi23F2FC-CPrr-10" value="" style="rounded=0;whiteSpace=wrap;html=1;" parent="1" vertex="1">
          <mxGeometry x="220" y="270" width="300" height="80" as="geometry" />
        </mxCell>
        <mxCell id="LnjIlbvOi23F2FC-CPrr-11" value="解析" style="text;html=1;align=center;verticalAlign=middle;whiteSpace=wrap;rounded=0;" parent="1" vertex="1">
          <mxGeometry x="340" y="270" width="60" height="30" as="geometry" />
        </mxCell>
        <mxCell id="LnjIlbvOi23F2FC-CPrr-12" value="用户信息" style="rounded=0;whiteSpace=wrap;html=1;" parent="1" vertex="1">
          <mxGeometry x="240" y="520" width="70" height="35" as="geometry" />
        </mxCell>
        <mxCell id="LnjIlbvOi23F2FC-CPrr-13" value="资产信息" style="rounded=0;whiteSpace=wrap;html=1;" parent="1" vertex="1">
          <mxGeometry x="335" y="520" width="70" height="35" as="geometry" />
        </mxCell>
        <mxCell id="LnjIlbvOi23F2FC-CPrr-14" value="定制化规则" style="rounded=0;whiteSpace=wrap;html=1;" parent="1" vertex="1">
          <mxGeometry x="430" y="520" width="70" height="35" as="geometry" />
        </mxCell>
        <mxCell id="LnjIlbvOi23F2FC-CPrr-15" value="机器学习" style="rounded=0;whiteSpace=wrap;html=1;" parent="1" vertex="1">
          <mxGeometry x="240" y="400" width="70" height="35" as="geometry" />
        </mxCell>
        <mxCell id="LnjIlbvOi23F2FC-CPrr-16" value="基于规则" style="rounded=0;whiteSpace=wrap;html=1;" parent="1" vertex="1">
          <mxGeometry x="330" y="400" width="70" height="35" as="geometry" />
        </mxCell>
        <mxCell id="LnjIlbvOi23F2FC-CPrr-18" value="&lt;div&gt;文本召回：&lt;/div&gt;&lt;div&gt;&lt;span style=&quot;white-space: pre;&quot;&gt;&#x9;&lt;/span&gt;全词&lt;/div&gt;&lt;div&gt;&lt;span style=&quot;white-space: pre;&quot;&gt;&#x9;&lt;/span&gt;分词&lt;br&gt;&lt;/div&gt;&lt;div&gt;用户信息召回：&lt;/div&gt;&lt;span style=&quot;white-space: pre;&quot;&gt;&#x9;&lt;/span&gt;用户部门&lt;div&gt;&lt;span style=&quot;white-space: pre;&quot;&gt;&#x9;&lt;/span&gt;浏览历史&lt;/div&gt;&lt;div&gt;语义召回：&lt;/div&gt;&lt;div&gt;&lt;span style=&quot;white-space: pre;&quot;&gt;&#x9;&lt;/span&gt;向量化&lt;/div&gt;" style="text;html=1;align=left;verticalAlign=middle;whiteSpace=wrap;rounded=0;" parent="1" vertex="1">
          <mxGeometry x="540" y="474" width="110" height="130" as="geometry" />
        </mxCell>
        <mxCell id="LnjIlbvOi23F2FC-CPrr-19" value="LLM" style="rounded=0;whiteSpace=wrap;html=1;" parent="1" vertex="1">
          <mxGeometry x="420" y="400" width="70" height="35" as="geometry" />
        </mxCell>
        <mxCell id="LnjIlbvOi23F2FC-CPrr-20" value="问题补全" style="rounded=0;whiteSpace=wrap;html=1;" parent="1" vertex="1">
          <mxGeometry x="230" y="300" width="70" height="35" as="geometry" />
        </mxCell>
        <mxCell id="LnjIlbvOi23F2FC-CPrr-21" value="分词" style="rounded=0;whiteSpace=wrap;html=1;" parent="1" vertex="1">
          <mxGeometry x="320" y="300" width="70" height="35" as="geometry" />
        </mxCell>
        <mxCell id="LnjIlbvOi23F2FC-CPrr-22" value="语义理解" style="rounded=0;whiteSpace=wrap;html=1;" parent="1" vertex="1">
          <mxGeometry x="414" y="300" width="70" height="35" as="geometry" />
        </mxCell>
        <mxCell id="WkEsFBFeogpZg_ynUTP_-3" value="" style="rounded=0;whiteSpace=wrap;html=1;" vertex="1" parent="1">
          <mxGeometry x="140" y="730" width="390" height="187" as="geometry" />
        </mxCell>
        <mxCell id="WkEsFBFeogpZg_ynUTP_-4" value="" style="rounded=0;whiteSpace=wrap;html=1;" vertex="1" parent="1">
          <mxGeometry x="230" y="771" width="120" height="130" as="geometry" />
        </mxCell>
        <mxCell id="WkEsFBFeogpZg_ynUTP_-5" value="" style="rounded=0;whiteSpace=wrap;html=1;" vertex="1" parent="1">
          <mxGeometry x="380" y="771" width="120" height="130" as="geometry" />
        </mxCell>
        <mxCell id="WkEsFBFeogpZg_ynUTP_-6" value="Coral" style="rounded=0;whiteSpace=wrap;html=1;" vertex="1" parent="1">
          <mxGeometry x="255" y="806.5" width="70" height="35" as="geometry" />
        </mxCell>
        <mxCell id="WkEsFBFeogpZg_ynUTP_-7" value="Coral" style="rounded=0;whiteSpace=wrap;html=1;" vertex="1" parent="1">
          <mxGeometry x="405" y="806.5" width="70" height="35" as="geometry" />
        </mxCell>
        <mxCell id="WkEsFBFeogpZg_ynUTP_-8" value="Nuwa" style="rounded=0;whiteSpace=wrap;html=1;" vertex="1" parent="1">
          <mxGeometry x="255" y="854" width="70" height="35" as="geometry" />
        </mxCell>
        <mxCell id="WkEsFBFeogpZg_ynUTP_-9" value="Nuwa" style="rounded=0;whiteSpace=wrap;html=1;" vertex="1" parent="1">
          <mxGeometry x="405" y="854" width="70" height="35" as="geometry" />
        </mxCell>
        <mxCell id="WkEsFBFeogpZg_ynUTP_-10" value="ES" style="text;html=1;align=center;verticalAlign=middle;whiteSpace=wrap;rounded=0;" vertex="1" parent="1">
          <mxGeometry x="260" y="771" width="60" height="30" as="geometry" />
        </mxCell>
        <mxCell id="WkEsFBFeogpZg_ynUTP_-11" value="Viking" style="text;html=1;align=center;verticalAlign=middle;whiteSpace=wrap;rounded=0;" vertex="1" parent="1">
          <mxGeometry x="410" y="771" width="60" height="30" as="geometry" />
        </mxCell>
        <mxCell id="WkEsFBFeogpZg_ynUTP_-12" value="存储服务" style="text;html=1;align=center;verticalAlign=middle;whiteSpace=wrap;rounded=0;" vertex="1" parent="1">
          <mxGeometry x="140" y="730" width="60" height="30" as="geometry" />
        </mxCell>
        <mxCell id="WkEsFBFeogpZg_ynUTP_-14" value="搜索服务" style="text;html=1;align=center;verticalAlign=middle;whiteSpace=wrap;rounded=0;" vertex="1" parent="1">
          <mxGeometry x="140" y="230" width="60" height="30" as="geometry" />
        </mxCell>
        <mxCell id="WkEsFBFeogpZg_ynUTP_-16" value="APP系统" style="text;html=1;align=center;verticalAlign=middle;whiteSpace=wrap;rounded=0;" vertex="1" parent="1">
          <mxGeometry x="140" y="130" width="60" height="30" as="geometry" />
        </mxCell>
        <mxCell id="WkEsFBFeogpZg_ynUTP_-17" value="&lt;div&gt;文本排序：&lt;/div&gt;&lt;div&gt;&lt;span style=&quot;white-space: pre;&quot;&gt;&#x9;&lt;/span&gt;ML排序&lt;/div&gt;&lt;div&gt;&lt;span style=&quot;white-space: pre;&quot;&gt;&#x9;&lt;/span&gt;规则排序&lt;br&gt;&lt;/div&gt;&lt;div&gt;&lt;span style=&quot;white-space: pre;&quot;&gt;&#x9;&lt;/span&gt;机器学习排序&lt;br&gt;&lt;/div&gt;" style="text;html=1;align=left;verticalAlign=middle;whiteSpace=wrap;rounded=0;" vertex="1" parent="1">
          <mxGeometry x="540" y="375" width="110" height="80" as="geometry" />
        </mxCell>
        <mxCell id="WkEsFBFeogpZg_ynUTP_-19" value="" style="rounded=0;whiteSpace=wrap;html=1;" vertex="1" parent="1">
          <mxGeometry x="219" y="601" width="300" height="100" as="geometry" />
        </mxCell>
        <mxCell id="WkEsFBFeogpZg_ynUTP_-20" value="搜索范式" style="text;html=1;align=center;verticalAlign=middle;whiteSpace=wrap;rounded=0;" vertex="1" parent="1">
          <mxGeometry x="339" y="601" width="60" height="30" as="geometry" />
        </mxCell>
        <mxCell id="WkEsFBFeogpZg_ynUTP_-21" value="nuwa范式" style="rounded=0;whiteSpace=wrap;html=1;" vertex="1" parent="1">
          <mxGeometry x="251" y="636" width="100" height="35" as="geometry" />
        </mxCell>
        <mxCell id="WkEsFBFeogpZg_ynUTP_-22" value="coral范式" style="rounded=0;whiteSpace=wrap;html=1;" vertex="1" parent="1">
          <mxGeometry x="390" y="636" width="100" height="35" as="geometry" />
        </mxCell>
      </root>
    </mxGraphModel>
  </diagram>
</mxfile>
